<?xml version="1.0" encoding="UTF-8" standalone="no"?> <svg xmlns="http://www.w3.org/2000/svg" width="1706.72" height="1655.871" viewBox="0 0 1706.72 1655.871">
  <g id="Layer_x0020_1" transform="translate(-313.32 -338.729)">
    <path id="Path_1" data-name="Path 1" d="M1020.15,1375.53c-.01.02-.01.03-.02.04Zm58.47-111.18c.01-.02.02-.03.03-.05Zm746.02-.04c-.11-.17-.21-.35-.31-.52Zm-776.68,58.35c69.5,28.63,190.52,67.11,346.68,74.06l.58.03c144.41,5.93,297.61-16.02,449.07-71.23q5.235-1.92,10.5-3.88l-30.15-57.32-.31-.52a24.18,24.18,0,0,1-1.16-2.2l-77.37-147.11-4.74-9.11c-8.91-17.47-17.34-34-29.12-34H1191.31c-6.41,0-12.13,5.35-17.31,12.83-.03.04-.06.09-.09.14-4.04,5.99-7.85,13.46-11.74,21.07l-4.2,8.08c-.17.33-.34.67-.52,1l-77.02,146.45a.333.333,0,0,1-.06.1.074.074,0,0,1-.02.06,27.4,27.4,0,0,1-1.69,3.22l-30.69,58.37Zm775.2-61.08,1.16,2.2A24.18,24.18,0,0,1,1823.16,1261.58ZM941.15,1224.6c-.64.11-1.28.22-1.92.35C939.87,1224.82,940.51,1224.71,941.15,1224.6Zm77.28,154.19,1.7-3.22A25.953,25.953,0,0,1,1018.43,1378.79Zm861.27-9.71c-159.78,60.85-307.48,82.07-435.65,82.07-192,0-340.84-47.75-420.93-81.28l10.62-20.19.89-1.67.77-1.47.04-.07a26.663,26.663,0,0,0-11.38-34.13c-.19-.11-.38-.21-.57-.31a26.524,26.524,0,0,0-12.41-3.07H952.63a16.075,16.075,0,0,1-15.99-15.99,16.117,16.117,0,0,1,15.99-15.99h103.31a26.662,26.662,0,0,0,22.69-12.65l-30.66,58.32c.18.07.37.15.55.22,104.4,42.92,222.01,68.67,346.13,73.83q24.15,1.08,49.41,1.1c118.24,0,253.78-18.85,400.24-72.3q5.25-1.92,10.5-3.88l13.88,26.39-.05.03c.16.31.33.61.5.91a.815.815,0,0,1,.07.13,26.688,26.688,0,0,0,23.04,13.21h58.47a69.33,69.33,0,1,0,0-138.66h-87.34l-70.46-133.97-4.32-8.48c-6.19-12.14-12.26-24.04-19.75-34.17l-115.44,23.71a26.576,26.576,0,1,1-10.62-52.08l3.07-.63H1434.91a26.571,26.571,0,0,0-2.82-6.23l-65.74-125h-39.11q-8.745,3.465-17.45,6.78l65.45,124.45H1191.35c-44.39,0-60.16,30.91-76.65,63.21l-4.31,8.44-12.28,23.37h14.63a26.67,26.67,0,0,1,0,53.34h-42.69l-30.12,57.27H952.65a68.784,68.784,0,0,0-11.46.96c-.65.11-1.28.22-1.92.35a69.529,69.529,0,0,0-55.95,68.02,69.029,69.029,0,0,0,16.82,45.18H627.2a26.67,26.67,0,0,1,26.2,26.67v26.67H995.74a26.655,26.655,0,0,0,22.72-12.7l-67.82,128.96v53.46h78.45a82.72,82.72,0,0,1,0,165.44H950.64v69.93a17.09,17.09,0,0,0,17.08,17.08h967.85a17.174,17.174,0,0,0,17.08-17.08v-69.93H1874.2a82.72,82.72,0,0,1,0-165.44h78.45v-53.46l-72.93-138.67Zm28.55-60.12-16.82-31.98h59.24c7.24,0,11.98,3.79,14.24,8.76a15.814,15.814,0,0,1-.03,14.52c-2.26,4.94-7,8.7-14.2,8.7Zm-687.66,279.6h462.06a26.67,26.67,0,1,1,0,53.34H1220.59a26.67,26.67,0,1,1,0-53.34Zm16.38,110.97a26.669,26.669,0,0,1,26.67-26.67h375.94a26.67,26.67,0,0,1,0,53.34H1263.64A26.669,26.669,0,0,1,1236.97,1699.53Z" fill="#db5656" fill-rule="evenodd"/>
    <path id="Path_2" data-name="Path 2" d="M1824.63,1264.31c-.11-.17-.21-.35-.31-.52Zm-1.47-2.72,1.16,2.2A24.18,24.18,0,0,1,1823.16,1261.59Zm-413.82-190.22H1191.3c-11.78,0-20.28,16.65-29.16,34.06l-4.71,9.06-77.02,146.45a.333.333,0,0,1-.06.1.127.127,0,0,1-.01.06,25.838,25.838,0,0,1-1.7,3.21l-30.69,58.37c76.67,31.57,216.02,75.15,396.09,75.15,121.06,0,260.26-19.76,410.74-76.19l13.88,26.39-.05.03c.16.31.33.61.5.91a26.687,26.687,0,0,0,23.1,13.35h58.47a69.33,69.33,0,0,0,0-138.66H1847.34a26.684,26.684,0,0,0-24.18,37.94l-77.37-147.11-4.74-9.11c-8.91-17.47-17.34-34-29.12-34H1409.34Zm498.91,237.6-16.82-31.98h59.24a15.99,15.99,0,0,1,0,31.98h-42.43Z" fill="#46a2ff" fill-rule="evenodd"/>
    <path id="Path_3" data-name="Path 3" d="M1952.63,1507.75,1745.8,1114.47c-3.18-6.04-3.91-7.48-4.74-9.11-8.91-17.47-17.34-34-29.12-34H1191.31c-11.78,0-20.27,16.64-29.14,34.04-.84,1.65-1.49,2.94-4.72,9.07L950.62,1507.75v288.83a17.09,17.09,0,0,0,17.08,17.08h967.86a17.174,17.174,0,0,0,17.08-17.08V1507.75Zm-159.75-418.07L2002,1487.31a26.471,26.471,0,0,1,3.96,13.99v295.29a70.538,70.538,0,0,1-70.42,70.42H967.68a70.68,70.68,0,0,1-70.42-70.42V1501.31a26.524,26.524,0,0,1,3.07-12.41l.06.02,209.96-399.22,4.3-8.44c16.48-32.31,32.25-63.21,76.65-63.21h520.63c44.4,0,60.07,30.71,76.63,63.18l4.32,8.48Z" fill="#250e1e"/>
    <path id="Path_4" data-name="Path 4" d="M1022.13,1311.47a26.57,26.57,0,1,0-22.09,48.33c72.16,32.97,231.69,91.36,444,91.36,134.15,0,289.68-23.24,458.07-90.83a26.6,26.6,0,0,0-19.8-49.38c-161.04,64.64-309.87,86.87-438.27,86.87-202.63,0-353.71-55.19-421.91-86.35Z" fill="#250e1e"/>
    <path id="Path_5" data-name="Path 5" d="M923.94,1561.22h105.12a82.72,82.72,0,0,1,0,165.44H923.94a26.669,26.669,0,0,1-26.67-26.67v-112.1a26.669,26.669,0,0,1,26.67-26.67Zm105.12,53.34H950.61v58.76h78.45a29.38,29.38,0,0,0,0-58.76Z" fill="#250e1e"/>
    <path id="Path_6" data-name="Path 6" d="M1952.63,1614.56h-78.45a29.38,29.38,0,0,0,0,58.76h78.45Zm-78.45-53.34H1979.3a26.669,26.669,0,0,1,26.67,26.67v112.1a26.669,26.669,0,0,1-26.67,26.67H1874.18a82.72,82.72,0,0,1,0-165.44Z" fill="#250e1e"/>
    <path id="Path_7" data-name="Path 7" d="M1038.09,1813.67h158.57a26.669,26.669,0,0,1,26.67,26.67v63.8c0,49.74-40.74,90.46-90.46,90.46h-31c-49.74,0-90.46-40.74-90.46-90.46v-63.8a26.669,26.669,0,0,1,26.67-26.67ZM1170,1867.01H1064.76v37.13a37.192,37.192,0,0,0,37.12,37.12h31a37.192,37.192,0,0,0,37.12-37.12Z" fill="#250e1e"/>
    <path id="Path_8" data-name="Path 8" d="M1706.56,1813.67h158.57a26.669,26.669,0,0,1,26.67,26.67v63.8c0,49.74-40.74,90.46-90.46,90.46h-31c-49.74,0-90.46-40.74-90.46-90.46v-63.8a26.669,26.669,0,0,1,26.67-26.67Zm131.91,53.34H1733.23v37.13a37.192,37.192,0,0,0,37.12,37.12h31a37.192,37.192,0,0,0,37.12-37.12Z" fill="#250e1e"/>
    <path id="Path_9" data-name="Path 9" d="M1220.59,1588.56a26.67,26.67,0,1,0,0,53.34h462.06a26.67,26.67,0,0,0,0-53.34H1220.59Z" fill="#250e1e"/>
    <path id="Path_10" data-name="Path 10" d="M1263.64,1672.87a26.67,26.67,0,0,0,0,53.34h375.94a26.67,26.67,0,0,0,0-53.34H1263.64Z" fill="#250e1e"/>
    <path id="Path_11" data-name="Path 11" d="M1011.07,1362.3H952.61a69.154,69.154,0,0,1-48.98-20.35h0c-.61-.61-1.19-1.25-1.74-1.91a69.189,69.189,0,0,1,50.72-116.4h103.33a26.675,26.675,0,0,1,22.71,40.66l-44.03,83.71.05.03a26.679,26.679,0,0,1-23.6,14.26Zm-58.46-53.34h42.43l16.82-31.98H952.62a15.99,15.99,0,0,0,0,31.98Z" fill="#250e1e"/>
    <path id="Path_12" data-name="Path 12" d="M1908.25,1308.96h42.43a15.99,15.99,0,0,0,0-31.98h-59.24l16.82,31.98Zm42.43,53.34h-58.46a26.641,26.641,0,0,1-23.6-14.26l.05-.03-44.03-83.71a26.675,26.675,0,0,1,22.71-40.66h103.33a69.33,69.33,0,0,1,0,138.66Z" fill="#250e1e"/>
    <path id="Path_13" data-name="Path 13" d="M1375.2,1018.02,1175.84,638.96c-3.18-6.04-3.91-7.48-4.74-9.11-8.91-17.47-17.34-34-29.12-34H621.36c-11.78,0-20.28,16.65-29.16,34.06-.78,1.53-1.57,3.07-4.71,9.06L380.67,1032.25v288.84a17.064,17.064,0,0,0,5.03,12.05h0l.89.93a17,17,0,0,0,11.15,4.1H900.11a69.336,69.336,0,0,1,52.51-114.51h87.28l70.46-133.97,4.3-8.43c16.48-32.32,32.26-63.23,76.66-63.23h183.89ZM1222.92,614.16l209.13,397.63a26.471,26.471,0,0,1,3.96,13.99v18.91a26.669,26.669,0,0,1-26.67,26.67H1191.3c-11.78,0-20.28,16.65-29.16,34.06-.83,1.63-1.75,3.43-4.71,9.06l-77.07,146.55a26.662,26.662,0,0,1-24.43,15.96H952.61a15.99,15.99,0,0,0,0,31.98h58.45a26.678,26.678,0,0,1,23.6,39.09l-.06-.02-14.46,27.5a26.662,26.662,0,0,1-24.43,15.96H397.73a70.184,70.184,0,0,1-47.78-18.87,25.468,25.468,0,0,1-1.97-1.79h0a70.214,70.214,0,0,1-20.66-49.76V1025.79a26.524,26.524,0,0,1,3.07-12.41l.06.02L540.4,614.18l4.3-8.43c16.49-32.31,32.26-63.23,76.66-63.23h520.62c44.41,0,60.07,30.71,76.63,63.17l4.32,8.48Z" fill="#250e1e"/>
    <path id="Path_14" data-name="Path 14" d="M452.18,835.95a26.57,26.57,0,0,0-22.09,48.33c72.16,32.97,231.69,91.36,444,91.36,134.15,0,289.68-23.24,458.06-90.83a26.6,26.6,0,1,0-19.8-49.38c-161.04,64.64-309.86,86.87-438.27,86.87-202.63,0-353.71-55.19-421.91-86.35Z" fill="#250e1e"/>
    <path id="Path_15" data-name="Path 15" d="M353.98,1085.7H459.1a82.72,82.72,0,0,1,0,165.44H353.98a26.669,26.669,0,0,1-26.67-26.67v-112.1a26.669,26.669,0,0,1,26.67-26.67Zm105.12,53.34H380.65v58.76H459.1a29.385,29.385,0,0,0,0-58.77Z" fill="#250e1e"/>
    <path id="Path_16" data-name="Path 16" d="M468.13,1338.15H626.7a26.669,26.669,0,0,1,26.67,26.67v63.79a90.838,90.838,0,0,1-90.45,90.47h-31a90.712,90.712,0,0,1-90.46-90.47v-63.79a26.669,26.669,0,0,1,26.67-26.67Zm131.91,53.34H494.8v37.12a37.239,37.239,0,0,0,37.12,37.13h31a37.112,37.112,0,0,0,37.11-37.13v-37.12Z" fill="#250e1e"/>
    <path id="Path_17" data-name="Path 17" d="M650.63,1113.05a26.67,26.67,0,0,0,0,53.34h462.06a26.67,26.67,0,0,0,0-53.34H650.63Z" fill="#250e1e"/>
    <path id="Path_18" data-name="Path 18" d="M441.11,886.79H382.65a69.33,69.33,0,0,1,0-138.66H485.98a26.675,26.675,0,0,1,22.71,40.66L464.66,872.5l.05.03a26.68,26.68,0,0,1-23.6,14.26Zm-58.46-53.34h42.43l16.82-31.98H382.66a15.99,15.99,0,0,0,0,31.98Z" fill="#250e1e"/>
    <path id="Path_19" data-name="Path 19" d="M1338.29,833.45h42.43a15.99,15.99,0,0,0,0-31.98h-59.24l16.82,31.98Zm42.43,53.34h-58.46a26.641,26.641,0,0,1-23.6-14.26l.05-.03-44.03-83.71a26.675,26.675,0,0,1,22.71-40.66h103.33a69.33,69.33,0,0,1,0,138.66Z" fill="#250e1e"/>
    <path id="Path_20" data-name="Path 20" d="M1209.71,669.95a26.592,26.592,0,0,0,42.09,32.51l194.69-251.17,3.61,195.17-.1.07a26.669,26.669,0,0,0,42.6,20.89l308.35-195.11L1643.77,669.55l-.04-.03a26.665,26.665,0,0,0,18.79,43.2L1827.15,739,1640.19,859.18l-.05-.04a26.664,26.664,0,0,0,6.37,47.85l180.31,73.85-184.09,37.81a26.576,26.576,0,0,0,10.62,52.08l267.51-54.94a26.668,26.668,0,0,0,6.89-51.15l-.03.08-215.81-88.38,201.16-129.31a26.664,26.664,0,0,0-8.75-49.64l-.04.08-190.48-30.4,226.11-283.74a26.674,26.674,0,0,0-34.01-40.47l.04.07L1502.33,598.32l-4.09-221.06a26.673,26.673,0,0,0-47.69-18.18l.04.09L1209.7,669.95Z" fill="#250e1e"/>
    <path id="Path_21" data-name="Path 21" d="M1253.2,786.06l-77.36-147.09-4.74-9.11c-8.91-17.47-17.34-34-29.12-34H621.36c-11.78,0-20.28,16.65-29.16,34.06l-4.71,9.06L510.48,785.42a26.792,26.792,0,0,1-1.78,3.4l-30.69,58.35c76.67,31.57,216.02,75.15,396.09,75.15,121.06,0,260.26-19.76,410.74-76.19l-30.15-57.32c-.1-.17-.2-.34-.31-.51-.43-.72-.81-1.47-1.17-2.23Z" fill="#46a2ff" fill-rule="evenodd"/>
    <path id="Path_22" data-name="Path 22" d="M1643.73,669.52Zm-263.02,78.61a69.33,69.33,0,0,1,0,138.66H1366.3l65.74,125a26.567,26.567,0,0,1,2.82,6.23H1645.8l181.02-37.18-180.31-73.85a26.664,26.664,0,0,1-6.37-47.85l.05.04L1827.15,739l-164.63-26.28a26.627,26.627,0,0,1-18.75-43.17l157.18-197.24L1492.6,667.42a26.669,26.669,0,0,1-42.6-20.89l.1-.07-3.61-195.17L1262.27,688.96l31.13,59.17h87.33Z" fill="#ffda46" fill-rule="evenodd"/>
    <path id="Path_23" data-name="Path 23" d="M1380.72,801.47h-59.24l16.82,31.98h42.43a15.99,15.99,0,0,0,0-31.98Z" fill="#ffda46" fill-rule="evenodd"/>
    <path id="Path_24" data-name="Path 24" d="M1309.74,893.57c-159.78,60.85-307.48,82.07-435.65,82.07-192,0-340.84-47.75-420.93-81.28l-72.5,137.87v53.46h78.45a82.72,82.72,0,0,1,0,165.44H380.66v69.94a16.99,16.99,0,0,0,5.04,12.04l.89.93a17,17,0,0,0,11.15,4.1H900.1a69.311,69.311,0,0,1,52.51-114.51h87.28l30.12-57.27H650.63a26.67,26.67,0,0,1,0-53.34h447.44l12.28-23.37,4.3-8.43c16.48-32.32,32.26-63.23,76.66-63.23H1375.2l-65.45-124.45Z" fill="#ffda46" fill-rule="evenodd"/>
    <path id="Path_25" data-name="Path 25" d="M425.08,833.45l16.82-31.98H382.66a15.99,15.99,0,0,0,0,31.98h42.43Z" fill="#ffda46" fill-rule="evenodd"/>
    <path id="Path_26" data-name="Path 26" d="M459.11,1139.04H380.66v58.76h78.45a29.385,29.385,0,0,0,0-58.77Z" fill="#a7ffff" fill-rule="evenodd"/>
    <path id="Path_27" data-name="Path 27" d="M941.33,1281.7a15.959,15.959,0,0,0,11.29,27.27h42.42l16.83-31.98H952.63a16.017,16.017,0,0,0-11.28,4.7Z" fill="#db5656" fill-rule="evenodd"/>
    <path id="Path_28" data-name="Path 28" d="M600.04,1428.61v-37.12H494.8v37.12a37.239,37.239,0,0,0,37.12,37.13h31a37.112,37.112,0,0,0,37.11-37.13Z" fill="#ababab" fill-rule="evenodd"/>
    <path id="Path_29" data-name="Path 29" d="M1029.06,1614.56H950.61v58.76h78.45a29.38,29.38,0,0,0,0-58.76Z" fill="#a7ffff" fill-rule="evenodd"/>
    <path id="Path_30" data-name="Path 30" d="M1169.99,1867H1064.75v37.13a37.192,37.192,0,0,0,37.12,37.12h31a37.192,37.192,0,0,0,37.12-37.12Z" fill="#ababab" fill-rule="evenodd"/>
    <path id="Path_31" data-name="Path 31" d="M1733.22,1867v37.13a37.192,37.192,0,0,0,37.12,37.12h31a37.192,37.192,0,0,0,37.12-37.12V1867Z" fill="#ababab" fill-rule="evenodd"/>
    <path id="Path_32" data-name="Path 32" d="M1874.17,1673.31h78.45v-58.76h-78.45a29.38,29.38,0,1,0,0,58.76Z" fill="#a7ffff" fill-rule="evenodd"/>
    <path id="Path_33" data-name="Path 33" d="M1908.25,1308.96h42.43c7.2,0,11.94-3.76,14.2-8.7a17.831,17.831,0,0,0,.03-14.52,16.047,16.047,0,0,0-14.24-8.76h-59.24Z" fill="#db5656" fill-rule="evenodd"/>
  </g>
</svg>
